<svg xmlns="http://www.w3.org/2000/svg" width="17" height="17" viewBox="0 0 25.807 25.807">
  <path id="Icon_open-magnifying-glass" data-name="Icon open-magnifying-glass" d="M11.189-.013a11.189,11.189,0,1,0,0,22.378A11.059,11.059,0,0,0,16.5,21.055a3.2,3.2,0,0,0,.416.416l3.2,3.2a3.261,3.261,0,1,0,4.6-4.6l-3.2-3.2A3.2,3.2,0,0,0,21,16.451a11.039,11.039,0,0,0,1.407-5.307A11.2,11.2,0,0,0,11.221-.045Zm0,3.2a7.955,7.955,0,0,1,7.992,7.992,8.016,8.016,0,0,1-2.11,5.5l-.1.1a3.2,3.2,0,0,0-.416.416,8,8,0,0,1-5.4,2.014,7.992,7.992,0,1,1,0-15.985Z" transform="translate(0 0.045)" fill="#6a6a6a"/>
</svg>
